<svg t="1581311239567" class="icon" viewBox="0 0 1024 1024" version="1.1" xmlns="http://www.w3.org/2000/svg" p-id="965" width="32" height="32"><path d="M98 351c-17.7 0-32-14.3-32-32V192.8c0-52.9 43.1-96 96-96h221c52.9 0 96 43.1 96 96V255c0 17.7-14.3 32-32 32s-32-14.3-32-32v-62.2c0-17.6-14.4-32-32-32H162c-17.6 0-32 14.4-32 32V319c0 17.6-14.3 32-32 32z" p-id="966" fill="#e6e6e6"></path><path d="M864 926.6H383c-17.7 0-32-14.3-32-32s14.3-32 32-32h481c17.6 0 32-14.4 32-32V319c0-17.6-14.4-32-32-32H447c-17.7 0-32-14.3-32-32s14.3-32 32-32h417c52.9 0 96 43.1 96 96v511.7c0 52.9-43.1 95.9-96 95.9z" p-id="967" fill="#e6e6e6"></path><path d="M383 926.6H162c-52.9 0-96-43.1-96-96V319c0-17.7 14.3-32 32-32s32 14.3 32 32v511.7c0 17.6 14.4 32 32 32h221c17.7 0 32 14.3 32 32 0 17.6-14.3 31.9-32 31.9zM768.1 511.2H256c-17.7 0-32-14.3-32-32s14.3-32 32-32h512.1c17.7 0 32 14.3 32 32s-14.3 32-32 32z" p-id="968" fill="#e6e6e6"></path><path d="M768.1 703H256c-17.7 0-32-14.3-32-32s14.3-32 32-32h512.1c17.7 0 32 14.3 32 32s-14.3 32-32 32z" p-id="969" fill="#e6e6e6"></path></svg>
